#!OML:ASF E:\Steps\Project 1\Capture day 1\Session 2\Subject.ASF
:FULLY-SPECIFIED
:DEGREES
80
root -1.19835 19.6478 20.6828 -153.666 -2.78366 178.407
lowerback -27.8894 -2.09432 -7.23369
upperback -1.40069 -1.04437 -0.344782
thorax 13.3248 -1.15275 3.11991
lowerneck -8.98711 -6.60753 0.635
upperneck 19.3094 -9.88516 -1.14616
head 7.31151 -5.09166 -1.38487
rclavicle 7.45443e-015 -3.18055e-014
rhumerus -39.3 -20.5309 -77.2796
rradius 33.6207
rwrist -4.6443
rhand -4.35138 -58.7777
rfingers 7.12502
rthumb 21.4165 -87.614
lclavicle 7.45443e-015 -3.18055e-014
lhumerus -27.7565 5.32752 82.6381
lradius 20.0536
lwrist -6.4645
lhand -22.5182 -13.4817
lfingers 7.12502
lthumb 3.90834 16.4622
rfemur -24.6818 6.22891 20.2808
rtibia 8.19027
rfoot -19.0144 -0.49445
rtoes -12.8735
lfemur -25.3924 -8.56532 -21.992
ltibia 9.98633
lfoot -8.80573 -2.24781
ltoes -20.5484
81
root -1.19899 19.6481 20.6844 -153.661 -2.79766 178.384
lowerback -27.8584 -2.13489 -7.27337
upperback -1.36489 -1.08139 -0.330777
thorax 13.3562 -1.17127 3.14361
lowerneck -9.00239 -6.78654 0.880421
upperneck 19.6573 -10.1708 -1.4573
head 7.39467 -5.2492 -1.55959
rclavicle 4.17448e-015 7.95139e-016
rhumerus -39.2712 -20.4081 -77.3324
rradius 33.6345
rwrist -4.63648
rhand -4.39195 -58.6
rfingers 7.12502
rthumb 21.3775 -87.4408
lclavicle 4.17448e-015 7.95139e-016
lhumerus -27.7306 5.23014 82.6469
lradius 20.1827
lwrist -6.32947
lhand -22.1374 -13.0191
lfingers 7.12502
lthumb 4.27612 16.9178
rfemur -24.6946 6.2541 20.2301
rtibia 8.17855
rfoot -19.2107 -0.688122
rtoes -14.1028
lfemur -25.5719 -8.63858 -22.012
ltibia 10.3039
lfoot -8.83752 -2.22375
ltoes -21.1766
82
root -1.19958 19.6493 20.681 -153.708 -2.86659 178.366
lowerback -27.8034 -2.20189 -7.31393
upperback -1.32898 -1.15544 -0.302809
thorax 13.3811 -1.20623 3.1697
lowerneck -8.95137 -6.82849 1.00875
upperneck 19.9015 -10.2446 -1.7106
head 7.44324 -5.30778 -1.67325
rclavicle -1.70955e-014 8.34896e-015
rhumerus -39.3528 -20.2963 -77.3424
rradius 33.7229
rwrist -4.53559
rhand -4.30286 -58.3988
rfingers 7.12502
rthumb 21.4631 -87.2298
lclavicle -1.70955e-014 8.34896e-015
lhumerus -27.7368 5.64152 82.4464
lradius 20.2382
lwrist -6.76217
lhand -21.6927 -12.9902
lfingers 7.12502
lthumb 4.70554 16.9376
rfemur -24.6024 6.25243 20.219
rtibia 8.13895
rfoot -19.4356 -0.916108
rtoes -15.6441
lfemur -25.6389 -8.86913 -21.9715
ltibia 10.5748
lfoot -8.9962 -2.0904
ltoes -21.8326
83
root -1.2009 19.6464 20.6825 -153.565 -2.86953 178.428
lowerback -27.8948 -2.20771 -7.3035
upperback -1.3481 -1.16997 -0.257574
thorax 13.4044 -1.21542 3.20517
lowerneck -8.68331 -6.94739 1.33178
upperneck 20.0475 -10.394 -2.27175
head 7.39038 -5.42172 -1.90613
rclavicle -2.08724e-015 5.08889e-014
rhumerus -39.3939 -20.3925 -77.2234
rradius 33.6781
rwrist -4.40239
rhand -4.11775 -58.2616
rfingers 7.12502
rthumb 21.6409 -87.0722
lclavicle -2.08724e-015 5.08889e-014
lhumerus -27.7549 5.80846 82.3927
lradius 20.2662
lwrist -6.65894
lhand -21.6639 -13.555
lfingers 7.12502
lthumb 4.73331 16.3721
rfemur -24.9058 6.16791 20.2975
rtibia 8.39532
rfoot -19.6087 -0.787695
rtoes -15.864
lfemur -25.9736 -9.0394 -21.8341
ltibia 10.9019
lfoot -9.22723 -1.93128
ltoes -21.7847
84
root -1.20256 19.6457 20.6836 -153.53 -2.9619 178.455
lowerback -27.8553 -2.20108 -7.3067
upperback -1.32822 -1.15943 -0.238832
thorax 13.4086 -1.20958 3.23255
lowerneck -8.8734 -6.80983 1.09863
upperneck 20.3994 -10.2413 -2.1006
head 7.56565 -5.35284 -1.82742
rclavicle -1.27222e-014 7.95139e-016
rhumerus -39.3782 -20.6502 -77.0662
rradius 33.5657
rwrist -4.3234
rhand -3.87845 -58.3061
rfingers 7.12502
rthumb 21.8707 -87.09
lclavicle -1.27222e-014 7.95139e-016
lhumerus -27.6919 5.48046 82.5302
lradius 20.3419
lwrist -5.94921
lhand -21.3502 -13.8626
lfingers 7.12502
lthumb 5.03626 16.0576
rfemur -24.8353 6.10971 20.3477
rtibia 8.19329
rfoot -19.5243 -0.837747
rtoes -16.0751
lfemur -26.1636 -9.13391 -21.7663
ltibia 11.1956
lfoot -9.30606 -1.99413
ltoes -21.07
85
root -1.20626 19.6458 20.6809 -153.566 -3.02835 178.54
lowerback -27.8117 -2.16176 -7.2035
upperback -1.24133 -1.12465 -0.232522
thorax 13.4851 -1.18541 3.19869
lowerneck -9.13774 -6.72541 0.939908
upperneck 20.5255 -10.1421 -1.88071
head 7.67751 -5.28994 -1.74196
rclavicle -5.66536e-015 6.36111e-015
rhumerus -39.3634 -20.7174 -77.0667
rradius 33.6481
rwrist -4.30462
rhand -3.73492 -58.2512
rfingers 7.12502
rthumb 22.0085 -87.019
lclavicle -5.66536e-015 6.36111e-015
lhumerus -27.5011 5.5173 82.4543
lradius 20.4548
lwrist -6.2696
lhand -20.7613 -13.452
lfingers 7.12502
lthumb 5.6048 16.4539
rfemur -24.7723 6.04091 20.4508
rtibia 8.16582
rfoot -19.3516 -0.653658
rtoes -15.3693
lfemur -26.2187 -9.34697 -21.6273
ltibia 11.3898
lfoot -9.42233 -1.74066
ltoes -21.5574
86
root -1.20795 19.6466 20.6789 -153.598 -3.12922 178.65
lowerback -27.7835 -2.1653 -7.1083
upperback -1.12846 -1.14288 -0.182162
thorax 13.6059 -1.18688 3.19679
lowerneck -9.07322 -6.96257 0.485266
upperneck 19.9353 -10.5078 -0.911689
head 7.54941 -5.39149 -1.36988
rclavicle -2.68359e-015 9.14409e-015
rhumerus -39.2007 -20.6026 -77.1665
rradius 33.6295
rwrist -4.12172
rhand -3.75645 -58.0676
rfingers 7.12502
rthumb 21.9878 -86.8379
lclavicle -2.68359e-015 9.14409e-015
lhumerus -27.3095 5.79147 82.3381
lradius 20.495
lwrist -6.7925
lhand -21.3536 -13.2113
lfingers 7.12502
lthumb 5.03292 16.709
rfemur -24.7417 6.04145 20.5952
rtibia 8.18871
rfoot -19.2952 -0.456924
rtoes -14.2013
lfemur -26.3282 -9.58384 -21.4269
ltibia 11.6411
lfoot -9.56583 -1.61441
ltoes -21.23
87
root -1.21254 19.6447 20.6742 -153.571 -3.17459 178.752
lowerback -27.8174 -2.16988 -6.99656
upperback -1.09835 -1.18139 -0.131513
thorax 13.6619 -1.19871 3.17634
lowerneck -8.99548 -7.07184 1.05948
upperneck 20.286 -10.6314 -1.83579
head 7.56198 -5.50806 -1.77141
rclavicle -7.55382e-015 -1.47101e-014
rhumerus -39.1099 -20.4045 -77.2479
rradius 33.5169
rwrist -3.91325
rhand -3.82949 -58.2303
rfingers 7.12502
rthumb 21.9177 -87.0087
lclavicle -7.55382e-015 -1.47101e-014
lhumerus -27.3611 5.70584 82.4022
lradius 20.5606
lwrist -6.26498
lhand -22.026 -13.3066
lfingers 7.12502
lthumb 4.38368 16.628
rfemur -24.7639 6.1278 20.6622
rtibia 8.208
rfoot -19.5354 -0.67408
rtoes -15.0133
lfemur -26.5005 -9.9165 -21.2079
ltibia 11.8944
lfoot -9.65443 -1.55188
ltoes -18.9083
88
root -1.21061 19.6447 20.6763 -153.496 -3.28171 178.791
lowerback -27.6459 -2.2069 -7.02593
upperback -1.56049 -1.25588 -0.178554
thorax 13.8229 -1.25147 3.30496
lowerneck -8.83998 -7.03336 0.827785
upperneck 20.5431 -10.6238 -1.70064
head 7.64081 -5.52161 -1.69633
rclavicle 1.43125e-014 2.14687e-014
rhumerus -39.2602 -20.2166 -77.2746
rradius 33.5245
rwrist -3.96884
rhand -3.97984 -58.9254
rfingers 7.12502
rthumb 21.7733 -87.7207
lclavicle 1.43125e-014 2.14687e-014
lhumerus -27.5712 5.50588 82.4267
lradius 20.7523
lwrist -5.98528
lhand -21.6816 -12.8562
lfingers 7.12502
lthumb 4.71624 17.0713
rfemur -24.8239 6.2356 20.7253
rtibia 8.20676
rfoot -19.6994 -1.00512
rtoes -16.456
lfemur -26.7955 -9.923 -21.1214
ltibia 12.278
lfoot -9.76588 -1.6293
ltoes -18.6856
